<mxfile host="app.diagrams.net" modified="2022-01-05T08:29:34.181Z" agent="5.0 (Windows NT 10.0; Win64; x64) AppleWebKit/537.36 (KHTML, like Gecko) Chrome/96.0.4664.110 Safari/537.36" etag="DwZl8ijXrZQfZU6bzscu" version="16.1.4" type="github">
  <diagram id="q6imdFILRNXkSkLKUf_8" name="Page-1">
    <mxGraphModel dx="1240" dy="643" grid="1" gridSize="10" guides="1" tooltips="1" connect="1" arrows="1" fold="1" page="1" pageScale="1" pageWidth="850" pageHeight="1100" math="0" shadow="0">
      <root>
        <mxCell id="0" />
        <mxCell id="1" parent="0" />
        <mxCell id="LxmJ1HHwx997Y78uSNSh-2" value="" style="group" parent="1" vertex="1" connectable="0">
          <mxGeometry x="200" y="290" width="150" height="80" as="geometry" />
        </mxCell>
        <mxCell id="RaZKCxVyGutOOrVnjIwC-53" value="PHP-FPM&amp;nbsp;" style="rounded=1;whiteSpace=wrap;html=1;dashed=1;dashPattern=1 1;labelBackgroundColor=none;labelBorderColor=none;fontFamily=Helvetica;fontSize=12;fillColor=#f5f5f5;strokeColor=#666666;fontColor=#333333;" parent="LxmJ1HHwx997Y78uSNSh-2" vertex="1">
          <mxGeometry width="150" height="80" as="geometry" />
        </mxCell>
        <mxCell id="LxmJ1HHwx997Y78uSNSh-1" value="" style="shape=image;imageAspect=0;aspect=fixed;verticalLabelPosition=bottom;verticalAlign=top;dashed=1;dashPattern=1 1;labelBackgroundColor=none;labelBorderColor=none;fontFamily=Helvetica;fontSize=12;fontColor=#000000;fillColor=#97D077;gradientColor=none;image=data:image/svg+xml,PHN2ZyB4bWxucz0iaHR0cDovL3d3dy53My5vcmcvMjAwMC9zdmciIHhtbG5zOnhsaW5rPSJodHRwOi8vd3d3LnczLm9yZy8xOTk5L3hsaW5rIiB2ZXJzaW9uPSIxLjEiIGlkPSJMYXllcl8xIiB4PSIwcHgiIHk9IjBweCIgdmlld0JveD0iMCAwIDEyMi44OCA4OC4xNyIgc3R5bGU9ImVuYWJsZS1iYWNrZ3JvdW5kOm5ldyAwIDAgMTIyLjg4IDg4LjE3IiB4bWw6c3BhY2U9InByZXNlcnZlIj48c3R5bGUgdHlwZT0idGV4dC9jc3MiPi5zdDB7ZmlsbDojMDA5MUUyO308L3N0eWxlPjxnPjxwYXRoIGNsYXNzPSJzdDAiIGQ9Ik0xMjEuNjgsMzMuMzRjLTAuMzQtMC4yOC0zLjQyLTIuNjItMTAuMDMtMi42MmMtMS43MSwwLTMuNDgsMC4xNy01LjE5LDAuNDZjLTEuMjUtOC43Mi04LjQ5LTEyLjk0LTguNzgtMTMuMTYgbC0xLjc3LTEuMDNsLTEuMTQsMS42NWMtMS40MiwyLjIyLTIuNTEsNC43My0zLjEzLDcuMjljLTEuMiw0Ljk2LTAuNDYsOS42MywyLjA1LDEzLjYyYy0zLjAyLDEuNzEtNy45MiwyLjExLTguOTUsMi4xN2wtODAuOTMsMCBjLTIuMTEsMC0zLjgyLDEuNzEtMy44MiwzLjgyYy0wLjExLDcuMDcsMS4wOCwxNC4xMywzLjUzLDIwLjhjMi43OSw3LjI5LDYuOTUsMTIuNzEsMTIuMzEsMTYuMDFjNi4wNCwzLjcsMTUuOSw1LjgxLDI3LjAxLDUuODEgYzUuMDEsMCwxMC4wMy0wLjQ2LDE0Ljk5LTEuMzdjNi45LTEuMjUsMTMuNTEtMy42NSwxOS42LTcuMTJjNS4wMi0yLjkxLDkuNTItNi42MSwxMy4zNC0xMC45NGM2LjQ0LTcuMjQsMTAuMjYtMTUuMzMsMTMuMDUtMjIuNTEgYzAuNCwwLDAuNzQsMCwxLjE0LDBjNy4wMSwwLDExLjM0LTIuNzksMTMuNzMtNS4xOWMxLjYtMS40OCwyLjc5LTMuMzEsMy42NS01LjM2bDAuNTEtMS40OEwxMjEuNjgsMzMuMzRMMTIxLjY4LDMzLjM0eiBNNzEuNTksMzkuMzhoMTAuODNjMC41MSwwLDAuOTctMC40LDAuOTctMC45N3YtOS42OWMwLTAuNTEtMC40LTAuOTctMC45Ny0wLjk3bDAsMGwtMTAuODMsMGMtMC41MSwwLTAuOTcsMC40LTAuOTcsMC45N2wwLDB2OS42OSBDNzAuNjgsMzguOTgsNzEuMDgsMzkuMzgsNzEuNTksMzkuMzhMNzEuNTksMzkuMzh6IE01Ni40OSwxMS42M2gxMC44M2MwLjUxLDAsMC45Ny0wLjQsMC45Ny0wLjk3VjAuOTdjMC0wLjUxLTAuNDYtMC45Ny0wLjk3LTAuOTcgTDU2LjQ5LDBjLTAuNTEsMC0wLjk3LDAuNC0wLjk3LDAuOTdsMCwwdjkuNjlDNTUuNTIsMTEuMTcsNTUuOTcsMTEuNjMsNTYuNDksMTEuNjNMNTYuNDksMTEuNjN6IE01Ni40OSwyNS41M2gxMC44MyBjMC41MSwwLDAuOTctMC40NiwwLjk3LTAuOTd2LTkuNjljMC0wLjUxLTAuNDYtMC45Ny0wLjk3LTAuOTdINTYuNDljLTAuNTEsMC0wLjk3LDAuNC0wLjk3LDAuOTdsMCwwdjkuNjkgQzU1LjUyLDI1LjA4LDU1Ljk3LDI1LjUzLDU2LjQ5LDI1LjUzTDU2LjQ5LDI1LjUzeiBNNDEuNSwyNS41M2gxMC44M2MwLjUxLDAsMC45Ny0wLjQ2LDAuOTctMC45N3YtOS42OWMwLTAuNTEtMC40LTAuOTctMC45Ny0wLjk3IGwwLDBINDEuNWMtMC41MSwwLTAuOTcsMC40LTAuOTcsMC45N2wwLDB2OS42OUM0MC41MywyNS4wOCw0MC45MywyNS41Myw0MS41LDI1LjUzTDQxLjUsMjUuNTN6IE0yNi4yOCwyNS41M2gxMC44MyBjMC41MSwwLDAuOTctMC40NiwwLjk3LTAuOTd2LTkuNjljMC0wLjUxLTAuNC0wLjk3LTAuOTctMC45N2wwLDBIMjYuMjhjLTAuNTEsMC0wLjk3LDAuNC0wLjk3LDAuOTd2OS42OSBDMjUuMzcsMjUuMDgsMjUuNzcsMjUuNTMsMjYuMjgsMjUuNTNMMjYuMjgsMjUuNTN6IE01Ni40OSwzOS4zOGgxMC44M2MwLjUxLDAsMC45Ny0wLjQsMC45Ny0wLjk3di05LjY5YzAtMC41MS0wLjQtMC45Ny0wLjk3LTAuOTcgbDAsMGwtMTAuODMsMGMtMC41MSwwLTAuOTcsMC40LTAuOTcsMC45N2wwLDB2OS42OUM1NS41MiwzOC45OCw1NS45NywzOS4zOCw1Ni40OSwzOS4zOEw1Ni40OSwzOS4zOEw1Ni40OSwzOS4zOHogTTQxLjUsMzkuMzggaDEwLjgzYzAuNTEsMCwwLjk3LTAuNCwwLjk3LTAuOTdsMCwwdi05LjY5YzAtMC41MS0wLjQtMC45Ny0wLjk3LTAuOTdsMCwwbC0xMC44MywwYy0wLjUxLDAtMC45NywwLjQtMC45NywwLjk3bDAsMHY5LjY5IEM0MC41MywzOC45OCw0MC45MywzOS4zOCw0MS41LDM5LjM4TDQxLjUsMzkuMzhMNDEuNSwzOS4zOHogTTI2LjI4LDM5LjM4aDEwLjgzYzAuNTEsMCwwLjk3LTAuNCwwLjk3LTAuOTdsMCwwdi05LjY5IGMwLTAuNTEtMC40LTAuOTctMC45Ny0wLjk3bDAsMGwtMTAuODMsMGMtMC41MSwwLTAuOTcsMC40LTAuOTcsMC45N3Y5LjY5QzI1LjM3LDM4Ljk4LDI1Ljc3LDM5LjM4LDI2LjI4LDM5LjM4TDI2LjI4LDM5LjM4eiBNMTEuMzUsMzkuMzhoMTAuODNjMC41MSwwLDAuOTctMC40LDAuOTctMC45N2wwLDB2LTkuNjljMC0wLjUxLTAuNC0wLjk3LTAuOTctMC45N2wwLDBsLTEwLjgzLDBjLTAuNTEsMC0wLjk3LDAuNC0wLjk3LDAuOTdsMCwwIHY5LjY5QzEwLjQ0LDM4Ljk4LDEwLjg0LDM5LjM4LDExLjM1LDM5LjM4TDExLjM1LDM5LjM4TDExLjM1LDM5LjM4eiIvPjwvZz48L3N2Zz4=;" parent="LxmJ1HHwx997Y78uSNSh-2" vertex="1">
          <mxGeometry x="8.823529411764707" y="8.88888888888889" width="24.591176470588234" height="17.647058823529413" as="geometry" />
        </mxCell>
        <mxCell id="LxmJ1HHwx997Y78uSNSh-6" value="" style="group" parent="1" vertex="1" connectable="0">
          <mxGeometry x="200" y="470" width="150" height="80" as="geometry" />
        </mxCell>
        <mxCell id="LxmJ1HHwx997Y78uSNSh-7" value="Nginx server" style="rounded=1;whiteSpace=wrap;html=1;dashed=1;dashPattern=1 1;labelBackgroundColor=none;labelBorderColor=none;fontFamily=Helvetica;fontSize=12;fillColor=#f5f5f5;strokeColor=#666666;fontColor=#333333;" parent="LxmJ1HHwx997Y78uSNSh-6" vertex="1">
          <mxGeometry width="150" height="80" as="geometry" />
        </mxCell>
        <mxCell id="LxmJ1HHwx997Y78uSNSh-8" value="" style="shape=image;imageAspect=0;aspect=fixed;verticalLabelPosition=bottom;verticalAlign=top;dashed=1;dashPattern=1 1;labelBackgroundColor=none;labelBorderColor=none;fontFamily=Helvetica;fontSize=12;fontColor=#000000;fillColor=#97D077;gradientColor=none;image=data:image/svg+xml,PHN2ZyB4bWxucz0iaHR0cDovL3d3dy53My5vcmcvMjAwMC9zdmciIHhtbG5zOnhsaW5rPSJodHRwOi8vd3d3LnczLm9yZy8xOTk5L3hsaW5rIiB2ZXJzaW9uPSIxLjEiIGlkPSJMYXllcl8xIiB4PSIwcHgiIHk9IjBweCIgdmlld0JveD0iMCAwIDEyMi44OCA4OC4xNyIgc3R5bGU9ImVuYWJsZS1iYWNrZ3JvdW5kOm5ldyAwIDAgMTIyLjg4IDg4LjE3IiB4bWw6c3BhY2U9InByZXNlcnZlIj48c3R5bGUgdHlwZT0idGV4dC9jc3MiPi5zdDB7ZmlsbDojMDA5MUUyO308L3N0eWxlPjxnPjxwYXRoIGNsYXNzPSJzdDAiIGQ9Ik0xMjEuNjgsMzMuMzRjLTAuMzQtMC4yOC0zLjQyLTIuNjItMTAuMDMtMi42MmMtMS43MSwwLTMuNDgsMC4xNy01LjE5LDAuNDZjLTEuMjUtOC43Mi04LjQ5LTEyLjk0LTguNzgtMTMuMTYgbC0xLjc3LTEuMDNsLTEuMTQsMS42NWMtMS40MiwyLjIyLTIuNTEsNC43My0zLjEzLDcuMjljLTEuMiw0Ljk2LTAuNDYsOS42MywyLjA1LDEzLjYyYy0zLjAyLDEuNzEtNy45MiwyLjExLTguOTUsMi4xN2wtODAuOTMsMCBjLTIuMTEsMC0zLjgyLDEuNzEtMy44MiwzLjgyYy0wLjExLDcuMDcsMS4wOCwxNC4xMywzLjUzLDIwLjhjMi43OSw3LjI5LDYuOTUsMTIuNzEsMTIuMzEsMTYuMDFjNi4wNCwzLjcsMTUuOSw1LjgxLDI3LjAxLDUuODEgYzUuMDEsMCwxMC4wMy0wLjQ2LDE0Ljk5LTEuMzdjNi45LTEuMjUsMTMuNTEtMy42NSwxOS42LTcuMTJjNS4wMi0yLjkxLDkuNTItNi42MSwxMy4zNC0xMC45NGM2LjQ0LTcuMjQsMTAuMjYtMTUuMzMsMTMuMDUtMjIuNTEgYzAuNCwwLDAuNzQsMCwxLjE0LDBjNy4wMSwwLDExLjM0LTIuNzksMTMuNzMtNS4xOWMxLjYtMS40OCwyLjc5LTMuMzEsMy42NS01LjM2bDAuNTEtMS40OEwxMjEuNjgsMzMuMzRMMTIxLjY4LDMzLjM0eiBNNzEuNTksMzkuMzhoMTAuODNjMC41MSwwLDAuOTctMC40LDAuOTctMC45N3YtOS42OWMwLTAuNTEtMC40LTAuOTctMC45Ny0wLjk3bDAsMGwtMTAuODMsMGMtMC41MSwwLTAuOTcsMC40LTAuOTcsMC45N2wwLDB2OS42OSBDNzAuNjgsMzguOTgsNzEuMDgsMzkuMzgsNzEuNTksMzkuMzhMNzEuNTksMzkuMzh6IE01Ni40OSwxMS42M2gxMC44M2MwLjUxLDAsMC45Ny0wLjQsMC45Ny0wLjk3VjAuOTdjMC0wLjUxLTAuNDYtMC45Ny0wLjk3LTAuOTcgTDU2LjQ5LDBjLTAuNTEsMC0wLjk3LDAuNC0wLjk3LDAuOTdsMCwwdjkuNjlDNTUuNTIsMTEuMTcsNTUuOTcsMTEuNjMsNTYuNDksMTEuNjNMNTYuNDksMTEuNjN6IE01Ni40OSwyNS41M2gxMC44MyBjMC41MSwwLDAuOTctMC40NiwwLjk3LTAuOTd2LTkuNjljMC0wLjUxLTAuNDYtMC45Ny0wLjk3LTAuOTdINTYuNDljLTAuNTEsMC0wLjk3LDAuNC0wLjk3LDAuOTdsMCwwdjkuNjkgQzU1LjUyLDI1LjA4LDU1Ljk3LDI1LjUzLDU2LjQ5LDI1LjUzTDU2LjQ5LDI1LjUzeiBNNDEuNSwyNS41M2gxMC44M2MwLjUxLDAsMC45Ny0wLjQ2LDAuOTctMC45N3YtOS42OWMwLTAuNTEtMC40LTAuOTctMC45Ny0wLjk3IGwwLDBINDEuNWMtMC41MSwwLTAuOTcsMC40LTAuOTcsMC45N2wwLDB2OS42OUM0MC41MywyNS4wOCw0MC45MywyNS41Myw0MS41LDI1LjUzTDQxLjUsMjUuNTN6IE0yNi4yOCwyNS41M2gxMC44MyBjMC41MSwwLDAuOTctMC40NiwwLjk3LTAuOTd2LTkuNjljMC0wLjUxLTAuNC0wLjk3LTAuOTctMC45N2wwLDBIMjYuMjhjLTAuNTEsMC0wLjk3LDAuNC0wLjk3LDAuOTd2OS42OSBDMjUuMzcsMjUuMDgsMjUuNzcsMjUuNTMsMjYuMjgsMjUuNTNMMjYuMjgsMjUuNTN6IE01Ni40OSwzOS4zOGgxMC44M2MwLjUxLDAsMC45Ny0wLjQsMC45Ny0wLjk3di05LjY5YzAtMC41MS0wLjQtMC45Ny0wLjk3LTAuOTcgbDAsMGwtMTAuODMsMGMtMC41MSwwLTAuOTcsMC40LTAuOTcsMC45N2wwLDB2OS42OUM1NS41MiwzOC45OCw1NS45NywzOS4zOCw1Ni40OSwzOS4zOEw1Ni40OSwzOS4zOEw1Ni40OSwzOS4zOHogTTQxLjUsMzkuMzggaDEwLjgzYzAuNTEsMCwwLjk3LTAuNCwwLjk3LTAuOTdsMCwwdi05LjY5YzAtMC41MS0wLjQtMC45Ny0wLjk3LTAuOTdsMCwwbC0xMC44MywwYy0wLjUxLDAtMC45NywwLjQtMC45NywwLjk3bDAsMHY5LjY5IEM0MC41MywzOC45OCw0MC45MywzOS4zOCw0MS41LDM5LjM4TDQxLjUsMzkuMzhMNDEuNSwzOS4zOHogTTI2LjI4LDM5LjM4aDEwLjgzYzAuNTEsMCwwLjk3LTAuNCwwLjk3LTAuOTdsMCwwdi05LjY5IGMwLTAuNTEtMC40LTAuOTctMC45Ny0wLjk3bDAsMGwtMTAuODMsMGMtMC41MSwwLTAuOTcsMC40LTAuOTcsMC45N3Y5LjY5QzI1LjM3LDM4Ljk4LDI1Ljc3LDM5LjM4LDI2LjI4LDM5LjM4TDI2LjI4LDM5LjM4eiBNMTEuMzUsMzkuMzhoMTAuODNjMC41MSwwLDAuOTctMC40LDAuOTctMC45N2wwLDB2LTkuNjljMC0wLjUxLTAuNC0wLjk3LTAuOTctMC45N2wwLDBsLTEwLjgzLDBjLTAuNTEsMC0wLjk3LDAuNC0wLjk3LDAuOTdsMCwwIHY5LjY5QzEwLjQ0LDM4Ljk4LDEwLjg0LDM5LjM4LDExLjM1LDM5LjM4TDExLjM1LDM5LjM4TDExLjM1LDM5LjM4eiIvPjwvZz48L3N2Zz4=;" parent="LxmJ1HHwx997Y78uSNSh-6" vertex="1">
          <mxGeometry x="8.823529411764707" y="8.88888888888889" width="21.85882352941176" height="15.686274509803923" as="geometry" />
        </mxCell>
        <mxCell id="LxmJ1HHwx997Y78uSNSh-24" value="&lt;b&gt;Browser&lt;/b&gt;" style="rounded=1;whiteSpace=wrap;html=1;labelBackgroundColor=none;labelBorderColor=none;fontFamily=Helvetica;fontSize=12;fillColor=#b0e3e6;strokeColor=#0e8088;strokeWidth=1;" parent="1" vertex="1">
          <mxGeometry x="215" y="650" width="125" height="30" as="geometry" />
        </mxCell>
        <mxCell id="LxmJ1HHwx997Y78uSNSh-28" style="edgeStyle=orthogonalEdgeStyle;rounded=0;orthogonalLoop=1;jettySize=auto;html=1;fontFamily=Helvetica;fontSize=12;fontColor=#000000;fillColor=#dae8fc;strokeColor=#6c8ebf;" parent="1" edge="1">
          <mxGeometry relative="1" as="geometry">
            <mxPoint x="284.72999999999996" y="640" as="sourcePoint" />
            <mxPoint x="284.72999999999996" y="560" as="targetPoint" />
            <Array as="points">
              <mxPoint x="284.72999999999996" y="610" />
              <mxPoint x="284.72999999999996" y="610" />
            </Array>
          </mxGeometry>
        </mxCell>
        <mxCell id="LxmJ1HHwx997Y78uSNSh-32" value="&lt;span style=&quot;color: rgb(0 , 0 , 0) ; font-family: &amp;#34;helvetica&amp;#34; ; font-size: 12px ; font-style: normal ; font-weight: 400 ; letter-spacing: normal ; text-align: center ; text-indent: 0px ; text-transform: none ; word-spacing: 0px ; background-color: rgb(248 , 249 , 250) ; display: inline ; float: none&quot;&gt;request&lt;/span&gt;" style="text;whiteSpace=wrap;html=1;fontSize=12;fontFamily=Helvetica;fontColor=#000000;" parent="1" vertex="1">
          <mxGeometry x="260" y="625" width="50" height="20" as="geometry" />
        </mxCell>
        <mxCell id="LxmJ1HHwx997Y78uSNSh-42" value="Compiled and built into &lt;br&gt;docker image" style="text;html=1;align=center;verticalAlign=middle;resizable=0;points=[];autosize=1;strokeColor=none;fillColor=none;fontSize=12;fontFamily=Helvetica;fontColor=#000000;" parent="1" vertex="1">
          <mxGeometry x="380" y="520" width="140" height="30" as="geometry" />
        </mxCell>
        <mxCell id="LxmJ1HHwx997Y78uSNSh-43" value="Backend" style="swimlane;rounded=1;labelBackgroundColor=none;labelBorderColor=none;fontFamily=Helvetica;fontSize=12;strokeWidth=1;startSize=40;fillColor=#dae8fc;strokeColor=#6c8ebf;" parent="1" vertex="1">
          <mxGeometry x="35" y="20" width="765" height="370" as="geometry" />
        </mxCell>
        <mxCell id="RaZKCxVyGutOOrVnjIwC-58" value="" style="group" parent="LxmJ1HHwx997Y78uSNSh-43" vertex="1" connectable="0">
          <mxGeometry x="425" y="60" width="250" height="180" as="geometry" />
        </mxCell>
        <mxCell id="RaZKCxVyGutOOrVnjIwC-39" value="Internal Logic" style="swimlane;dashed=1;dashPattern=1 1;labelBackgroundColor=none;labelBorderColor=none;fillColor=#ffe6cc;align=center;strokeColor=#d79b00;" parent="RaZKCxVyGutOOrVnjIwC-58" vertex="1">
          <mxGeometry x="50" width="200" height="70" as="geometry">
            <mxRectangle x="280" y="230" width="110" height="23" as="alternateBounds" />
          </mxGeometry>
        </mxCell>
        <mxCell id="RaZKCxVyGutOOrVnjIwC-40" value="Transforming data to JSON format" style="text;html=1;align=center;verticalAlign=middle;resizable=0;points=[];autosize=1;strokeColor=none;fillColor=none;fontColor=#000000;" parent="RaZKCxVyGutOOrVnjIwC-39" vertex="1">
          <mxGeometry y="40" width="200" height="20" as="geometry" />
        </mxCell>
        <mxCell id="RaZKCxVyGutOOrVnjIwC-42" value="" style="strokeWidth=2;html=1;shape=mxgraph.flowchart.annotation_2;align=left;labelPosition=right;pointerEvents=1;dashed=1;dashPattern=1 1;labelBackgroundColor=none;labelBorderColor=none;fillColor=#dae8fc;strokeColor=#6c8ebf;" parent="RaZKCxVyGutOOrVnjIwC-58" vertex="1">
          <mxGeometry y="30" width="50" height="130" as="geometry" />
        </mxCell>
        <mxCell id="RaZKCxVyGutOOrVnjIwC-49" value="Schema:webapi" style="swimlane;dashed=1;dashPattern=1 1;labelBackgroundColor=none;labelBorderColor=none;fillColor=#97D077;align=center;strokeColor=#82b366;" parent="RaZKCxVyGutOOrVnjIwC-58" vertex="1">
          <mxGeometry x="50" y="100" width="200" height="80" as="geometry">
            <mxRectangle x="280" y="230" width="110" height="23" as="alternateBounds" />
          </mxGeometry>
        </mxCell>
        <mxCell id="RaZKCxVyGutOOrVnjIwC-50" value="&lt;span style=&quot;text-align: left&quot;&gt;User-defined functions act as&lt;/span&gt;&lt;br style=&quot;padding: 0px ; margin: 0px ; text-align: left&quot;&gt;&lt;div style=&quot;text-align: left&quot;&gt;&lt;span&gt;API endpoints&lt;/span&gt;&lt;/div&gt;" style="text;html=1;align=center;verticalAlign=middle;resizable=0;points=[];autosize=1;strokeColor=none;fillColor=none;fontColor=#000000;" parent="RaZKCxVyGutOOrVnjIwC-49" vertex="1">
          <mxGeometry x="15" y="35" width="170" height="30" as="geometry" />
        </mxCell>
        <mxCell id="RaZKCxVyGutOOrVnjIwC-2" value="&lt;span&gt;PostgreSQL DB&lt;/span&gt;" style="shape=cylinder3;whiteSpace=wrap;html=1;boundedLbl=1;backgroundOutline=1;size=15;fillColor=#dae8fc;strokeColor=#6c8ebf;" parent="LxmJ1HHwx997Y78uSNSh-43" vertex="1">
          <mxGeometry x="305" y="85" width="120" height="120" as="geometry" />
        </mxCell>
        <mxCell id="RaZKCxVyGutOOrVnjIwC-35" value="" style="group;labelBackgroundColor=none;labelBorderColor=none;fontColor=#7EA6E0;" parent="LxmJ1HHwx997Y78uSNSh-43" vertex="1" connectable="0">
          <mxGeometry x="25" y="115" width="150" height="90" as="geometry" />
        </mxCell>
        <mxCell id="RaZKCxVyGutOOrVnjIwC-33" value="News headlines &lt;br&gt;scraper&amp;nbsp;" style="rounded=1;whiteSpace=wrap;html=1;fillColor=#dae8fc;strokeColor=none;dashed=1;dashPattern=1 1;" parent="RaZKCxVyGutOOrVnjIwC-35" vertex="1">
          <mxGeometry y="-15" width="150" height="90" as="geometry" />
        </mxCell>
        <mxCell id="RaZKCxVyGutOOrVnjIwC-32" value="" style="shape=image;imageAspect=0;aspect=fixed;verticalLabelPosition=bottom;verticalAlign=top;fontColor=#7EA6E0;fillColor=none;image=data:image/svg+xml,PHN2ZyB4bWxucz0iaHR0cDovL3d3dy53My5vcmcvMjAwMC9zdmciIHZpZXdCb3g9IjAgMCA0OCA0OCIgd2lkdGg9IjQ4cHgiIGhlaWdodD0iNDhweCI+PHBhdGggZmlsbD0iIzAyNzdCRCIgZD0iTTI0LjA0Nyw1Yy0xLjU1NSwwLjAwNS0yLjYzMywwLjE0Mi0zLjkzNiwwLjM2N2MtMy44NDgsMC42Ny00LjU0OSwyLjA3Ny00LjU0OSw0LjY3VjE0aDl2MkgxNS4yMmgtNC4zNWMtMi42MzYsMC00Ljk0MywxLjI0Mi01LjY3NCw0LjIxOWMtMC44MjYsMy40MTctMC44NjMsNS41NTcsMCw5LjEyNUM1Ljg1MSwzMi4wMDUsNy4yOTQsMzQsOS45MzEsMzRoMy42MzJ2LTUuMTA0YzAtMi45NjYsMi42ODYtNS44OTYsNS43NjQtNS44OTZoNy4yMzZjMi41MjMsMCw1LTEuODYyLDUtNC4zNzd2LTguNTg2YzAtMi40MzktMS43NTktNC4yNjMtNC4yMTgtNC42NzJDMjcuNDA2LDUuMzU5LDI1LjU4OSw0Ljk5NCwyNC4wNDcsNXogTTE5LjA2Myw5YzAuODIxLDAsMS41LDAuNjc3LDEuNSwxLjUwMmMwLDAuODMzLTAuNjc5LDEuNDk4LTEuNSwxLjQ5OGMtMC44MzcsMC0xLjUtMC42NjQtMS41LTEuNDk4QzE3LjU2Myw5LjY4LDE4LjIyNiw5LDE5LjA2Myw5eiIvPjxwYXRoIGZpbGw9IiNGRkMxMDciIGQ9Ik0yMy4wNzgsNDNjMS41NTUtMC4wMDUsMi42MzMtMC4xNDIsMy45MzYtMC4zNjdjMy44NDgtMC42Nyw0LjU0OS0yLjA3Nyw0LjU0OS00LjY3VjM0aC05di0yaDkuMzQzaDQuMzVjMi42MzYsMCw0Ljk0My0xLjI0Miw1LjY3NC00LjIxOWMwLjgyNi0zLjQxNywwLjg2My01LjU1NywwLTkuMTI1QzQxLjI3NCwxNS45OTUsMzkuODMxLDE0LDM3LjE5NCwxNGgtMy42MzJ2NS4xMDRjMCwyLjk2Ni0yLjY4Niw1Ljg5Ni01Ljc2NCw1Ljg5NmgtNy4yMzZjLTIuNTIzLDAtNSwxLjg2Mi01LDQuMzc3djguNTg2YzAsMi40MzksMS43NTksNC4yNjMsNC4yMTgsNC42NzJDMTkuNzE5LDQyLjY0MSwyMS41MzYsNDMuMDA2LDIzLjA3OCw0M3ogTTI4LjA2MywzOWMtMC44MjEsMC0xLjUtMC42NzctMS41LTEuNTAyYzAtMC44MzMsMC42NzktMS40OTgsMS41LTEuNDk4YzAuODM3LDAsMS41LDAuNjY0LDEuNSwxLjQ5OEMyOS41NjMsMzguMzIsMjguODk5LDM5LDI4LjA2MywzOXoiLz48L3N2Zz4=;" parent="RaZKCxVyGutOOrVnjIwC-35" vertex="1">
          <mxGeometry x="57.694615384615375" y="-30" width="34.61538461538461" height="34.61538461538461" as="geometry" />
        </mxCell>
        <mxCell id="RaZKCxVyGutOOrVnjIwC-59" style="edgeStyle=orthogonalEdgeStyle;rounded=0;orthogonalLoop=1;jettySize=auto;html=1;fontFamily=Helvetica;fontSize=12;fontColor=#000000;fillColor=#dae8fc;strokeColor=#6c8ebf;" parent="LxmJ1HHwx997Y78uSNSh-43" source="RaZKCxVyGutOOrVnjIwC-33" target="RaZKCxVyGutOOrVnjIwC-2" edge="1">
          <mxGeometry relative="1" as="geometry" />
        </mxCell>
        <mxCell id="RaZKCxVyGutOOrVnjIwC-52" value="Saving to DB" style="text;html=1;align=center;verticalAlign=middle;resizable=0;points=[];autosize=1;strokeColor=none;fillColor=none;fontSize=12;fontFamily=Helvetica;fontColor=#000000;fontStyle=0" parent="LxmJ1HHwx997Y78uSNSh-43" vertex="1">
          <mxGeometry x="195" y="120" width="90" height="20" as="geometry" />
        </mxCell>
        <mxCell id="RaZKCxVyGutOOrVnjIwC-61" value="access to webapi schema to &lt;br&gt;query JSON data" style="text;html=1;align=center;verticalAlign=middle;resizable=0;points=[];autosize=1;strokeColor=none;fillColor=none;fontSize=12;fontFamily=Helvetica;fontColor=#000000;" parent="LxmJ1HHwx997Y78uSNSh-43" vertex="1">
          <mxGeometry x="365" y="270" width="170" height="30" as="geometry" />
        </mxCell>
        <mxCell id="LxmJ1HHwx997Y78uSNSh-44" style="edgeStyle=orthogonalEdgeStyle;rounded=0;orthogonalLoop=1;jettySize=auto;html=1;fontFamily=Helvetica;fontSize=12;fontColor=#000000;entryX=0.5;entryY=1;entryDx=0;entryDy=0;fillColor=#dae8fc;strokeColor=#6c8ebf;" parent="1" source="RaZKCxVyGutOOrVnjIwC-53" target="RaZKCxVyGutOOrVnjIwC-49" edge="1">
          <mxGeometry relative="1" as="geometry">
            <mxPoint x="610" y="270" as="targetPoint" />
          </mxGeometry>
        </mxCell>
        <mxCell id="LxmJ1HHwx997Y78uSNSh-56" style="edgeStyle=orthogonalEdgeStyle;rounded=0;orthogonalLoop=1;jettySize=auto;html=1;entryX=1;entryY=0.5;entryDx=0;entryDy=0;fontFamily=Helvetica;fontSize=12;fontColor=#000000;fillColor=#e1d5e7;strokeColor=#9673a6;" parent="1" source="LxmJ1HHwx997Y78uSNSh-46" target="LxmJ1HHwx997Y78uSNSh-7" edge="1">
          <mxGeometry relative="1" as="geometry" />
        </mxCell>
        <mxCell id="LxmJ1HHwx997Y78uSNSh-46" value="Frontend : NodeJs Docker Container" style="swimlane;rounded=1;shadow=0;glass=0;labelBackgroundColor=none;labelBorderColor=none;sketch=0;fontFamily=Helvetica;fontSize=12;strokeColor=#9673a6;strokeWidth=1;fillColor=#e1d5e7;startSize=40;" parent="1" vertex="1">
          <mxGeometry x="564" y="440" width="236" height="140" as="geometry" />
        </mxCell>
        <mxCell id="LxmJ1HHwx997Y78uSNSh-53" value="Javascript" style="strokeWidth=1;html=1;shape=mxgraph.flowchart.multi-document;whiteSpace=wrap;rounded=1;shadow=0;glass=0;labelBackgroundColor=none;labelBorderColor=none;sketch=0;fontFamily=Helvetica;fontSize=12;fontColor=#000000;fillColor=#FFFF99;gradientColor=none;strokeColor=#999999;" parent="LxmJ1HHwx997Y78uSNSh-46" vertex="1">
          <mxGeometry x="16" y="59" width="84" height="61.11" as="geometry" />
        </mxCell>
        <mxCell id="LxmJ1HHwx997Y78uSNSh-54" value="SASS" style="strokeWidth=1;html=1;shape=mxgraph.flowchart.multi-document;whiteSpace=wrap;rounded=1;shadow=0;glass=0;labelBackgroundColor=none;labelBorderColor=none;sketch=0;fontFamily=Helvetica;fontSize=12;fillColor=#f8cecc;strokeColor=#b85450;" parent="LxmJ1HHwx997Y78uSNSh-46" vertex="1">
          <mxGeometry x="126" y="59" width="84" height="61.11" as="geometry" />
        </mxCell>
        <mxCell id="HWf1QBIloPetbogc94qM-6" value="" style="endArrow=classic;html=1;rounded=0;fillColor=#dae8fc;strokeColor=#6c8ebf;" edge="1" parent="1">
          <mxGeometry width="50" height="50" relative="1" as="geometry">
            <mxPoint x="250" y="560" as="sourcePoint" />
            <mxPoint x="250" y="635" as="targetPoint" />
          </mxGeometry>
        </mxCell>
        <mxCell id="HWf1QBIloPetbogc94qM-7" value="&lt;div style=&quot;text-align: center&quot;&gt;&lt;font face=&quot;helvetica&quot;&gt;html/JSON&lt;/font&gt;&lt;/div&gt;" style="text;whiteSpace=wrap;html=1;fontSize=12;fontFamily=Helvetica;fontColor=#000000;" vertex="1" parent="1">
          <mxGeometry x="180" y="580" width="50" height="20" as="geometry" />
        </mxCell>
        <mxCell id="HWf1QBIloPetbogc94qM-8" value="" style="group" vertex="1" connectable="0" parent="1">
          <mxGeometry x="320" y="550" width="70" height="100" as="geometry" />
        </mxCell>
        <mxCell id="LxmJ1HHwx997Y78uSNSh-31" value="&lt;br&gt;static files&lt;br&gt;(js,css,etc)" style="text;html=1;align=center;verticalAlign=middle;resizable=0;points=[];autosize=1;strokeColor=none;fillColor=none;fontSize=12;fontFamily=Helvetica;fontColor=#000000;" parent="HWf1QBIloPetbogc94qM-8" vertex="1">
          <mxGeometry y="25" width="70" height="50" as="geometry" />
        </mxCell>
        <mxCell id="LxmJ1HHwx997Y78uSNSh-57" value="" style="endArrow=classic;html=1;rounded=0;fontFamily=Helvetica;fontSize=12;fontColor=#000000;fillColor=#e1d5e7;strokeColor=#9673a6;" parent="HWf1QBIloPetbogc94qM-8" edge="1">
          <mxGeometry width="50" height="50" relative="1" as="geometry">
            <mxPoint as="sourcePoint" />
            <mxPoint y="100" as="targetPoint" />
          </mxGeometry>
        </mxCell>
        <mxCell id="LxmJ1HHwx997Y78uSNSh-10" value="proxy to PHP" style="text;html=1;align=center;verticalAlign=middle;resizable=0;points=[];autosize=1;strokeColor=none;fillColor=none;fontSize=12;fontFamily=Helvetica;fontColor=#000000;" parent="1" vertex="1">
          <mxGeometry x="280" y="410" width="90" height="20" as="geometry" />
        </mxCell>
        <mxCell id="HWf1QBIloPetbogc94qM-11" value="" style="html=1;rounded=0;shape=link;sourcePerimeterSpacing=0;fillColor=#dae8fc;strokeColor=#6c8ebf;width=12.857142857142858;" edge="1" parent="1">
          <mxGeometry width="100" relative="1" as="geometry">
            <mxPoint x="270" y="465" as="sourcePoint" />
            <mxPoint x="270" y="375" as="targetPoint" />
          </mxGeometry>
        </mxCell>
      </root>
    </mxGraphModel>
  </diagram>
</mxfile>
